<svg width="71" height="71" viewBox="0 0 71 71" fill="none" xmlns="http://www.w3.org/2000/svg">
<mask id="mask0_61_3451" style="mask-type:luminance" maskUnits="userSpaceOnUse" x="0" y="0" width="71" height="71">
<path d="M0.287354 0.300735H70.6653V70.6787H0.287354V0.300735Z" fill="white"/>
</mask>
<g mask="url(#mask0_61_3451)">
<path d="M3.58643 56.6624H12.5776H29.8903" stroke="#304E75" stroke-width="2" stroke-miterlimit="10" stroke-linecap="round" stroke-linejoin="round"/>
</g>
<path d="M28.2241 62.9832H21.3777" stroke="#304E75" stroke-width="2" stroke-miterlimit="10" stroke-linecap="round" stroke-linejoin="round"/>
<mask id="mask1_61_3451" style="mask-type:luminance" maskUnits="userSpaceOnUse" x="0" y="0" width="71" height="71">
<path d="M0.287354 0.300735H70.6653V70.6787H0.287354V0.300735Z" fill="white"/>
</mask>
<g mask="url(#mask1_61_3451)">
<path d="M36.3319 38.4394C33.2726 35.3823 37.6085 31.0437 40.6679 34.101L46.0976 39.5377M64.0371 40.1336L64.5897 40.6866C68.0851 44.1839 68.268 49.3792 65.2086 52.4404L57.4357 60.2177C56.377 61.2771 54.2013 61.9664 51.4962 61.6238L33.4517 59.3648C28.5084 58.7457 28.236 51.6537 33.1831 51.829L38.0989 52.0042C42.0653 52.1445 40.4577 51.2486 37.5542 48.3434L23.4602 34.2412C20.4009 31.1801 24.7369 26.8415 27.7961 29.9027L41.7616 43.8763M48.6939 33.4584C45.6345 30.3972 50.021 26.1093 53.0298 29.1199L55.3183 31.4098M42.5128 35.9509C39.4534 32.8898 43.7895 28.5512 46.8489 31.6124L50.4336 35.1992" stroke="#304E75" stroke-width="2" stroke-miterlimit="10" stroke-linecap="round" stroke-linejoin="round"/>
<path d="M15.3059 21.7436L18.2329 24.6724" stroke="#304E75" stroke-width="2" stroke-miterlimit="10" stroke-linecap="round" stroke-linejoin="round"/>
<path d="M23.7249 18.3281V22.4719" stroke="#304E75" stroke-width="2" stroke-miterlimit="10" stroke-linecap="round" stroke-linejoin="round"/>
<path d="M11.896 30.168H16.0335" stroke="#304E75" stroke-width="2" stroke-miterlimit="10" stroke-linecap="round" stroke-linejoin="round"/>
<path d="M15.4304 38.467L18.3573 35.5382" stroke="#304E75" stroke-width="2" stroke-miterlimit="10" stroke-linecap="round" stroke-linejoin="round"/>
<path d="M32.0234 21.8685L29.0925 24.7971" stroke="#304E75" stroke-width="2" stroke-miterlimit="10" stroke-linecap="round" stroke-linejoin="round"/>
<path d="M43.3456 20.7622C48.6314 20.7622 52.9401 16.4744 52.9401 11.2166C52.9401 5.9629 48.6314 1.67507 43.3456 1.67507C38.0638 1.67507 33.7512 5.9629 33.7512 11.2166C33.7512 16.4744 38.0638 20.7622 43.3456 20.7622Z" stroke="#304E75" stroke-width="2" stroke-miterlimit="10" stroke-linecap="round" stroke-linejoin="round"/>
<path d="M39.3757 10.7101L41.9135 13.5024L47.3198 8.9342" stroke="#304E75" stroke-width="2" stroke-miterlimit="10" stroke-linecap="round" stroke-linejoin="round"/>
<path d="M59.6843 35.7837L59.6699 35.7656" stroke="#304E75" stroke-width="2" stroke-miterlimit="10" stroke-linecap="round" stroke-linejoin="round"/>
<path d="M46.016 20.3845V30.97M14.8 69.304H9.54944C6.27206 69.304 3.58643 66.6167 3.58643 63.3375V7.67264C3.58643 4.38962 6.26821 1.70632 9.54944 1.70632H42.5674M46.016 60.9385V63.3375C46.016 66.6167 43.3303 69.304 40.0531 69.304H27.1346" stroke="#304E75" stroke-width="2" stroke-miterlimit="10" stroke-linecap="round" stroke-linejoin="round"/>
<path d="M20.9536 69.304H20.9793" stroke="#304E75" stroke-width="2" stroke-miterlimit="10" stroke-linecap="round" stroke-linejoin="round"/>
</g>
</svg>
